Genre:Thriller
Language:English  http://www.imdb.com/title/tt1235404/
Source:DVD

General
Complete name :31 North 62 East 2009 DvDRip Ac3 Feel-Free
Format : AVI
Format/Info : Audio Video Interleave
File size : 999 MiB
Duration : 1h 39mn
Overall bit rate : 1 403 Kbps
Video #0
Codec ID : XVID
Codec ID/Hint : XviD
Duration : 1h 39mn
Bit rate : 946 Kbps
Width : 652 pixels
Height : 352 pixels
Display aspect ratio : 1.852
Frame rate : 25.000 fps
Resolution : 24 bits
Colorimetry : 4:2:0
Scan type : Progressive
Bits/(Pixel*Frame) : 0.165
Stream size : 673 MiB (67%)
Writing library : XviD 1.2.1 (UTC 2008-12-04)
Audio #1
ID : 1
Format : AC-3
Format/Info : Audio Coding 3
Codec ID : 2000
Duration : 1h 39mn
Bit rate mode : Constant
Bit rate : 448 Kbps
Channel(s) : 6 channels
Channel positions : Front: L C R, Surround: L R, LFE
Sampling rate : 48.0 KHz
Stream size : 319 MiB (32%)
Alignment : Split accross interleaves
Interleave, duration : 40 ms (1.00 video frame)
Interleave, preload duration : 500 ms

Plot:
A psychological thriller about how an elite SAS unit's position, is revealed by the British Prime Minister; to ensure an arms deal goes ahead and to secure his re-election.

